<svg version="1.1" id="Layer_1" xmlns="http://www.w3.org/2000/svg" xmlns:xlink="http://www.w3.org/1999/xlink" x="0px" y="0px"
width="594px" height="594px" viewBox="0 0 594 594" enable-background="new 0 0 594 594" xml:space="preserve">
<rect x="0" y="0" width="594" height="594" fill="rgb(255,255,255)" /><g transform="translate(36,36)"><g transform="translate(144,0) scale(0.18,0.18)"><g transform="" style="fill: rgb(47, 47, 162);">
<rect width="100" height="100"/>
</g></g><g transform="translate(198,0) scale(0.18,0.18)"><g transform="" style="fill: rgb(47, 47, 162);">
<rect width="100" height="100"/>
</g></g><g transform="translate(234,0) scale(0.18,0.18)"><g transform="" style="fill: rgb(47, 47, 162);">
<rect width="100" height="100"/>
</g></g><g transform="translate(270,0) scale(0.18,0.18)"><g transform="" style="fill: rgb(47, 47, 162);">
<rect width="100" height="100"/>
</g></g><g transform="translate(324,0) scale(0.18,0.18)"><g transform="" style="fill: rgb(47, 47, 162);">
<rect width="100" height="100"/>
</g></g><g transform="translate(342,0) scale(0.18,0.18)"><g transform="" style="fill: rgb(47, 47, 162);">
<rect width="100" height="100"/>
</g></g><g transform="translate(360,0) scale(0.18,0.18)"><g transform="" style="fill: rgb(47, 47, 162);">
<rect width="100" height="100"/>
</g></g><g transform="translate(144,18) scale(0.18,0.18)"><g transform="" style="fill: rgb(47, 47, 162);">
<rect width="100" height="100"/>
</g></g><g transform="translate(198,18) scale(0.18,0.18)"><g transform="" style="fill: rgb(47, 47, 162);">
<rect width="100" height="100"/>
</g></g><g transform="translate(234,18) scale(0.18,0.18)"><g transform="" style="fill: rgb(47, 47, 162);">
<rect width="100" height="100"/>
</g></g><g transform="translate(288,18) scale(0.18,0.18)"><g transform="" style="fill: rgb(47, 47, 162);">
<rect width="100" height="100"/>
</g></g><g transform="translate(324,18) scale(0.18,0.18)"><g transform="" style="fill: rgb(47, 47, 162);">
<rect width="100" height="100"/>
</g></g><g transform="translate(360,18) scale(0.18,0.18)"><g transform="" style="fill: rgb(47, 47, 162);">
<rect width="100" height="100"/>
</g></g><g transform="translate(162,36) scale(0.18,0.18)"><g transform="" style="fill: rgb(47, 47, 162);">
<rect width="100" height="100"/>
</g></g><g transform="translate(180,36) scale(0.18,0.18)"><g transform="" style="fill: rgb(47, 47, 162);">
<rect width="100" height="100"/>
</g></g><g transform="translate(216,36) scale(0.18,0.18)"><g transform="" style="fill: rgb(47, 47, 162);">
<rect width="100" height="100"/>
</g></g><g transform="translate(270,36) scale(0.18,0.18)"><g transform="" style="fill: rgb(47, 47, 162);">
<rect width="100" height="100"/>
</g></g><g transform="translate(324,36) scale(0.18,0.18)"><g transform="" style="fill: rgb(47, 47, 162);">
<rect width="100" height="100"/>
</g></g><g transform="translate(360,36) scale(0.18,0.18)"><g transform="" style="fill: rgb(47, 47, 162);">
<rect width="100" height="100"/>
</g></g><g transform="translate(144,54) scale(0.18,0.18)"><g transform="" style="fill: rgb(47, 47, 162);">
<rect width="100" height="100"/>
</g></g><g transform="translate(180,54) scale(0.18,0.18)"><g transform="" style="fill: rgb(47, 47, 162);">
<rect width="100" height="100"/>
</g></g><g transform="translate(198,54) scale(0.18,0.18)"><g transform="" style="fill: rgb(47, 47, 162);">
<rect width="100" height="100"/>
</g></g><g transform="translate(252,54) scale(0.18,0.18)"><g transform="" style="fill: rgb(47, 47, 162);">
<rect width="100" height="100"/>
</g></g><g transform="translate(306,54) scale(0.18,0.18)"><g transform="" style="fill: rgb(47, 47, 162);">
<rect width="100" height="100"/>
</g></g><g transform="translate(342,54) scale(0.18,0.18)"><g transform="" style="fill: rgb(47, 47, 162);">
<rect width="100" height="100"/>
</g></g><g transform="translate(162,72) scale(0.18,0.18)"><g transform="" style="fill: rgb(47, 47, 162);">
<rect width="100" height="100"/>
</g></g><g transform="translate(180,72) scale(0.18,0.18)"><g transform="" style="fill: rgb(47, 47, 162);">
<rect width="100" height="100"/>
</g></g><g transform="translate(252,72) scale(0.18,0.18)"><g transform="" style="fill: rgb(47, 47, 162);">
<rect width="100" height="100"/>
</g></g><g transform="translate(270,72) scale(0.18,0.18)"><g transform="" style="fill: rgb(47, 47, 162);">
<rect width="100" height="100"/>
</g></g><g transform="translate(306,72) scale(0.18,0.18)"><g transform="" style="fill: rgb(47, 47, 162);">
<rect width="100" height="100"/>
</g></g><g transform="translate(324,72) scale(0.18,0.18)"><g transform="" style="fill: rgb(47, 47, 162);">
<rect width="100" height="100"/>
</g></g><g transform="translate(342,72) scale(0.18,0.18)"><g transform="" style="fill: rgb(47, 47, 162);">
<rect width="100" height="100"/>
</g></g><g transform="translate(162,90) scale(0.18,0.18)"><g transform="" style="fill: rgb(47, 47, 162);">
<rect width="100" height="100"/>
</g></g><g transform="translate(198,90) scale(0.18,0.18)"><g transform="" style="fill: rgb(47, 47, 162);">
<rect width="100" height="100"/>
</g></g><g transform="translate(216,90) scale(0.18,0.18)"><g transform="" style="fill: rgb(47, 47, 162);">
<rect width="100" height="100"/>
</g></g><g transform="translate(234,90) scale(0.18,0.18)"><g transform="" style="fill: rgb(47, 47, 162);">
<rect width="100" height="100"/>
</g></g><g transform="translate(288,90) scale(0.18,0.18)"><g transform="" style="fill: rgb(47, 47, 162);">
<rect width="100" height="100"/>
</g></g><g transform="translate(306,90) scale(0.18,0.18)"><g transform="" style="fill: rgb(47, 47, 162);">
<rect width="100" height="100"/>
</g></g><g transform="translate(342,90) scale(0.18,0.18)"><g transform="" style="fill: rgb(47, 47, 162);">
<rect width="100" height="100"/>
</g></g><g transform="translate(360,90) scale(0.18,0.18)"><g transform="" style="fill: rgb(47, 47, 162);">
<rect width="100" height="100"/>
</g></g><g transform="translate(144,108) scale(0.18,0.18)"><g transform="" style="fill: rgb(47, 47, 162);">
<rect width="100" height="100"/>
</g></g><g transform="translate(180,108) scale(0.18,0.18)"><g transform="" style="fill: rgb(47, 47, 162);">
<rect width="100" height="100"/>
</g></g><g transform="translate(216,108) scale(0.18,0.18)"><g transform="" style="fill: rgb(47, 47, 162);">
<rect width="100" height="100"/>
</g></g><g transform="translate(252,108) scale(0.18,0.18)"><g transform="" style="fill: rgb(47, 47, 162);">
<rect width="100" height="100"/>
</g></g><g transform="translate(288,108) scale(0.18,0.18)"><g transform="" style="fill: rgb(47, 47, 162);">
<rect width="100" height="100"/>
</g></g><g transform="translate(324,108) scale(0.18,0.18)"><g transform="" style="fill: rgb(47, 47, 162);">
<rect width="100" height="100"/>
</g></g><g transform="translate(360,108) scale(0.18,0.18)"><g transform="" style="fill: rgb(47, 47, 162);">
<rect width="100" height="100"/>
</g></g><g transform="translate(144,126) scale(0.18,0.18)"><g transform="" style="fill: rgb(47, 47, 162);">
<rect width="100" height="100"/>
</g></g><g transform="translate(180,126) scale(0.18,0.18)"><g transform="" style="fill: rgb(47, 47, 162);">
<rect width="100" height="100"/>
</g></g><g transform="translate(198,126) scale(0.18,0.18)"><g transform="" style="fill: rgb(47, 47, 162);">
<rect width="100" height="100"/>
</g></g><g transform="translate(216,126) scale(0.18,0.18)"><g transform="" style="fill: rgb(47, 47, 162);">
<rect width="100" height="100"/>
</g></g><g transform="translate(306,126) scale(0.18,0.18)"><g transform="" style="fill: rgb(47, 47, 162);">
<rect width="100" height="100"/>
</g></g><g transform="translate(324,126) scale(0.18,0.18)"><g transform="" style="fill: rgb(47, 47, 162);">
<rect width="100" height="100"/>
</g></g><g transform="translate(360,126) scale(0.18,0.18)"><g transform="" style="fill: rgb(47, 47, 162);">
<rect width="100" height="100"/>
</g></g><g transform="translate(0,144) scale(0.18,0.18)"><g transform="" style="fill: rgb(47, 47, 162);">
<rect width="100" height="100"/>
</g></g><g transform="translate(36,144) scale(0.18,0.18)"><g transform="" style="fill: rgb(47, 47, 162);">
<rect width="100" height="100"/>
</g></g><g transform="translate(54,144) scale(0.18,0.18)"><g transform="" style="fill: rgb(47, 47, 162);">
<rect width="100" height="100"/>
</g></g><g transform="translate(90,144) scale(0.18,0.18)"><g transform="" style="fill: rgb(47, 47, 162);">
<rect width="100" height="100"/>
</g></g><g transform="translate(108,144) scale(0.18,0.18)"><g transform="" style="fill: rgb(47, 47, 162);">
<rect width="100" height="100"/>
</g></g><g transform="translate(126,144) scale(0.18,0.18)"><g transform="" style="fill: rgb(47, 47, 162);">
<rect width="100" height="100"/>
</g></g><g transform="translate(180,144) scale(0.18,0.18)"><g transform="" style="fill: rgb(47, 47, 162);">
<rect width="100" height="100"/>
</g></g><g transform="translate(234,144) scale(0.18,0.18)"><g transform="" style="fill: rgb(47, 47, 162);">
<rect width="100" height="100"/>
</g></g><g transform="translate(306,144) scale(0.18,0.18)"><g transform="" style="fill: rgb(47, 47, 162);">
<rect width="100" height="100"/>
</g></g><g transform="translate(396,144) scale(0.18,0.18)"><g transform="" style="fill: rgb(47, 47, 162);">
<rect width="100" height="100"/>
</g></g><g transform="translate(450,144) scale(0.18,0.18)"><g transform="" style="fill: rgb(47, 47, 162);">
<rect width="100" height="100"/>
</g></g><g transform="translate(486,144) scale(0.18,0.18)"><g transform="" style="fill: rgb(47, 47, 162);">
<rect width="100" height="100"/>
</g></g><g transform="translate(504,144) scale(0.18,0.18)"><g transform="" style="fill: rgb(47, 47, 162);">
<rect width="100" height="100"/>
</g></g><g transform="translate(36,162) scale(0.18,0.18)"><g transform="" style="fill: rgb(47, 47, 162);">
<rect width="100" height="100"/>
</g></g><g transform="translate(72,162) scale(0.18,0.18)"><g transform="" style="fill: rgb(47, 47, 162);">
<rect width="100" height="100"/>
</g></g><g transform="translate(90,162) scale(0.18,0.18)"><g transform="" style="fill: rgb(47, 47, 162);">
<rect width="100" height="100"/>
</g></g><g transform="translate(126,162) scale(0.18,0.18)"><g transform="" style="fill: rgb(47, 47, 162);">
<rect width="100" height="100"/>
</g></g><g transform="translate(198,162) scale(0.18,0.18)"><g transform="" style="fill: rgb(47, 47, 162);">
<rect width="100" height="100"/>
</g></g><g transform="translate(216,162) scale(0.18,0.18)"><g transform="" style="fill: rgb(47, 47, 162);">
<rect width="100" height="100"/>
</g></g><g transform="translate(234,162) scale(0.18,0.18)"><g transform="" style="fill: rgb(47, 47, 162);">
<rect width="100" height="100"/>
</g></g><g transform="translate(252,162) scale(0.18,0.18)"><g transform="" style="fill: rgb(47, 47, 162);">
<rect width="100" height="100"/>
</g></g><g transform="translate(288,162) scale(0.18,0.18)"><g transform="" style="fill: rgb(47, 47, 162);">
<rect width="100" height="100"/>
</g></g><g transform="translate(306,162) scale(0.18,0.18)"><g transform="" style="fill: rgb(47, 47, 162);">
<rect width="100" height="100"/>
</g></g><g transform="translate(324,162) scale(0.18,0.18)"><g transform="" style="fill: rgb(47, 47, 162);">
<rect width="100" height="100"/>
</g></g><g transform="translate(342,162) scale(0.18,0.18)"><g transform="" style="fill: rgb(47, 47, 162);">
<rect width="100" height="100"/>
</g></g><g transform="translate(360,162) scale(0.18,0.18)"><g transform="" style="fill: rgb(47, 47, 162);">
<rect width="100" height="100"/>
</g></g><g transform="translate(396,162) scale(0.18,0.18)"><g transform="" style="fill: rgb(47, 47, 162);">
<rect width="100" height="100"/>
</g></g><g transform="translate(414,162) scale(0.18,0.18)"><g transform="" style="fill: rgb(47, 47, 162);">
<rect width="100" height="100"/>
</g></g><g transform="translate(432,162) scale(0.18,0.18)"><g transform="" style="fill: rgb(47, 47, 162);">
<rect width="100" height="100"/>
</g></g><g transform="translate(504,162) scale(0.18,0.18)"><g transform="" style="fill: rgb(47, 47, 162);">
<rect width="100" height="100"/>
</g></g><g transform="translate(108,180) scale(0.18,0.18)"><g transform="" style="fill: rgb(47, 47, 162);">
<rect width="100" height="100"/>
</g></g><g transform="translate(144,180) scale(0.18,0.18)"><g transform="" style="fill: rgb(47, 47, 162);">
<rect width="100" height="100"/>
</g></g><g transform="translate(198,180) scale(0.18,0.18)"><g transform="" style="fill: rgb(47, 47, 162);">
<rect width="100" height="100"/>
</g></g><g transform="translate(234,180) scale(0.18,0.18)"><g transform="" style="fill: rgb(47, 47, 162);">
<rect width="100" height="100"/>
</g></g><g transform="translate(324,180) scale(0.18,0.18)"><g transform="" style="fill: rgb(47, 47, 162);">
<rect width="100" height="100"/>
</g></g><g transform="translate(360,180) scale(0.18,0.18)"><g transform="" style="fill: rgb(47, 47, 162);">
<rect width="100" height="100"/>
</g></g><g transform="translate(468,180) scale(0.18,0.18)"><g transform="" style="fill: rgb(47, 47, 162);">
<rect width="100" height="100"/>
</g></g><g transform="translate(486,180) scale(0.18,0.18)"><g transform="" style="fill: rgb(47, 47, 162);">
<rect width="100" height="100"/>
</g></g><g transform="translate(0,198) scale(0.18,0.18)"><g transform="" style="fill: rgb(47, 47, 162);">
<rect width="100" height="100"/>
</g></g><g transform="translate(36,198) scale(0.18,0.18)"><g transform="" style="fill: rgb(47, 47, 162);">
<rect width="100" height="100"/>
</g></g><g transform="translate(54,198) scale(0.18,0.18)"><g transform="" style="fill: rgb(47, 47, 162);">
<rect width="100" height="100"/>
</g></g><g transform="translate(72,198) scale(0.18,0.18)"><g transform="" style="fill: rgb(47, 47, 162);">
<rect width="100" height="100"/>
</g></g><g transform="translate(90,198) scale(0.18,0.18)"><g transform="" style="fill: rgb(47, 47, 162);">
<rect width="100" height="100"/>
</g></g><g transform="translate(216,198) scale(0.18,0.18)"><g transform="" style="fill: rgb(47, 47, 162);">
<rect width="100" height="100"/>
</g></g><g transform="translate(288,198) scale(0.18,0.18)"><g transform="" style="fill: rgb(47, 47, 162);">
<rect width="100" height="100"/>
</g></g><g transform="translate(342,198) scale(0.18,0.18)"><g transform="" style="fill: rgb(47, 47, 162);">
<rect width="100" height="100"/>
</g></g><g transform="translate(360,198) scale(0.18,0.18)"><g transform="" style="fill: rgb(47, 47, 162);">
<rect width="100" height="100"/>
</g></g><g transform="translate(414,198) scale(0.18,0.18)"><g transform="" style="fill: rgb(47, 47, 162);">
<rect width="100" height="100"/>
</g></g><g transform="translate(504,198) scale(0.18,0.18)"><g transform="" style="fill: rgb(47, 47, 162);">
<rect width="100" height="100"/>
</g></g><g transform="translate(18,216) scale(0.18,0.18)"><g transform="" style="fill: rgb(47, 47, 162);">
<rect width="100" height="100"/>
</g></g><g transform="translate(54,216) scale(0.18,0.18)"><g transform="" style="fill: rgb(47, 47, 162);">
<rect width="100" height="100"/>
</g></g><g transform="translate(90,216) scale(0.18,0.18)"><g transform="" style="fill: rgb(47, 47, 162);">
<rect width="100" height="100"/>
</g></g><g transform="translate(108,216) scale(0.18,0.18)"><g transform="" style="fill: rgb(47, 47, 162);">
<rect width="100" height="100"/>
</g></g><g transform="translate(144,216) scale(0.18,0.18)"><g transform="" style="fill: rgb(47, 47, 162);">
<rect width="100" height="100"/>
</g></g><g transform="translate(180,216) scale(0.18,0.18)"><g transform="" style="fill: rgb(47, 47, 162);">
<rect width="100" height="100"/>
</g></g><g transform="translate(198,216) scale(0.18,0.18)"><g transform="" style="fill: rgb(47, 47, 162);">
<rect width="100" height="100"/>
</g></g><g transform="translate(252,216) scale(0.18,0.18)"><g transform="" style="fill: rgb(47, 47, 162);">
<rect width="100" height="100"/>
</g></g><g transform="translate(270,216) scale(0.18,0.18)"><g transform="" style="fill: rgb(47, 47, 162);">
<rect width="100" height="100"/>
</g></g><g transform="translate(288,216) scale(0.18,0.18)"><g transform="" style="fill: rgb(47, 47, 162);">
<rect width="100" height="100"/>
</g></g><g transform="translate(306,216) scale(0.18,0.18)"><g transform="" style="fill: rgb(47, 47, 162);">
<rect width="100" height="100"/>
</g></g><g transform="translate(360,216) scale(0.18,0.18)"><g transform="" style="fill: rgb(47, 47, 162);">
<rect width="100" height="100"/>
</g></g><g transform="translate(414,216) scale(0.18,0.18)"><g transform="" style="fill: rgb(47, 47, 162);">
<rect width="100" height="100"/>
</g></g><g transform="translate(450,216) scale(0.18,0.18)"><g transform="" style="fill: rgb(47, 47, 162);">
<rect width="100" height="100"/>
</g></g><g transform="translate(468,216) scale(0.18,0.18)"><g transform="" style="fill: rgb(47, 47, 162);">
<rect width="100" height="100"/>
</g></g><g transform="translate(18,234) scale(0.18,0.18)"><g transform="" style="fill: rgb(47, 47, 162);">
<rect width="100" height="100"/>
</g></g><g transform="translate(36,234) scale(0.18,0.18)"><g transform="" style="fill: rgb(47, 47, 162);">
<rect width="100" height="100"/>
</g></g><g transform="translate(54,234) scale(0.18,0.18)"><g transform="" style="fill: rgb(47, 47, 162);">
<rect width="100" height="100"/>
</g></g><g transform="translate(72,234) scale(0.18,0.18)"><g transform="" style="fill: rgb(47, 47, 162);">
<rect width="100" height="100"/>
</g></g><g transform="translate(162,234) scale(0.18,0.18)"><g transform="" style="fill: rgb(47, 47, 162);">
<rect width="100" height="100"/>
</g></g><g transform="translate(180,234) scale(0.18,0.18)"><g transform="" style="fill: rgb(47, 47, 162);">
<rect width="100" height="100"/>
</g></g><g transform="translate(252,234) scale(0.18,0.18)"><g transform="" style="fill: rgb(47, 47, 162);">
<rect width="100" height="100"/>
</g></g><g transform="translate(270,234) scale(0.18,0.18)"><g transform="" style="fill: rgb(47, 47, 162);">
<rect width="100" height="100"/>
</g></g><g transform="translate(288,234) scale(0.18,0.18)"><g transform="" style="fill: rgb(47, 47, 162);">
<rect width="100" height="100"/>
</g></g><g transform="translate(306,234) scale(0.18,0.18)"><g transform="" style="fill: rgb(47, 47, 162);">
<rect width="100" height="100"/>
</g></g><g transform="translate(324,234) scale(0.18,0.18)"><g transform="" style="fill: rgb(47, 47, 162);">
<rect width="100" height="100"/>
</g></g><g transform="translate(342,234) scale(0.18,0.18)"><g transform="" style="fill: rgb(47, 47, 162);">
<rect width="100" height="100"/>
</g></g><g transform="translate(396,234) scale(0.18,0.18)"><g transform="" style="fill: rgb(47, 47, 162);">
<rect width="100" height="100"/>
</g></g><g transform="translate(468,234) scale(0.18,0.18)"><g transform="" style="fill: rgb(47, 47, 162);">
<rect width="100" height="100"/>
</g></g><g transform="translate(486,234) scale(0.18,0.18)"><g transform="" style="fill: rgb(47, 47, 162);">
<rect width="100" height="100"/>
</g></g><g transform="translate(504,234) scale(0.18,0.18)"><g transform="" style="fill: rgb(47, 47, 162);">
<rect width="100" height="100"/>
</g></g><g transform="translate(18,252) scale(0.18,0.18)"><g transform="" style="fill: rgb(47, 47, 162);">
<rect width="100" height="100"/>
</g></g><g transform="translate(36,252) scale(0.18,0.18)"><g transform="" style="fill: rgb(47, 47, 162);">
<rect width="100" height="100"/>
</g></g><g transform="translate(54,252) scale(0.18,0.18)"><g transform="" style="fill: rgb(47, 47, 162);">
<rect width="100" height="100"/>
</g></g><g transform="translate(108,252) scale(0.18,0.18)"><g transform="" style="fill: rgb(47, 47, 162);">
<rect width="100" height="100"/>
</g></g><g transform="translate(162,252) scale(0.18,0.18)"><g transform="" style="fill: rgb(47, 47, 162);">
<rect width="100" height="100"/>
</g></g><g transform="translate(180,252) scale(0.18,0.18)"><g transform="" style="fill: rgb(47, 47, 162);">
<rect width="100" height="100"/>
</g></g><g transform="translate(198,252) scale(0.18,0.18)"><g transform="" style="fill: rgb(47, 47, 162);">
<rect width="100" height="100"/>
</g></g><g transform="translate(234,252) scale(0.18,0.18)"><g transform="" style="fill: rgb(47, 47, 162);">
<rect width="100" height="100"/>
</g></g><g transform="translate(306,252) scale(0.18,0.18)"><g transform="" style="fill: rgb(47, 47, 162);">
<rect width="100" height="100"/>
</g></g><g transform="translate(324,252) scale(0.18,0.18)"><g transform="" style="fill: rgb(47, 47, 162);">
<rect width="100" height="100"/>
</g></g><g transform="translate(342,252) scale(0.18,0.18)"><g transform="" style="fill: rgb(47, 47, 162);">
<rect width="100" height="100"/>
</g></g><g transform="translate(360,252) scale(0.18,0.18)"><g transform="" style="fill: rgb(47, 47, 162);">
<rect width="100" height="100"/>
</g></g><g transform="translate(378,252) scale(0.18,0.18)"><g transform="" style="fill: rgb(47, 47, 162);">
<rect width="100" height="100"/>
</g></g><g transform="translate(396,252) scale(0.18,0.18)"><g transform="" style="fill: rgb(47, 47, 162);">
<rect width="100" height="100"/>
</g></g><g transform="translate(468,252) scale(0.18,0.18)"><g transform="" style="fill: rgb(47, 47, 162);">
<rect width="100" height="100"/>
</g></g><g transform="translate(486,252) scale(0.18,0.18)"><g transform="" style="fill: rgb(47, 47, 162);">
<rect width="100" height="100"/>
</g></g><g transform="translate(504,252) scale(0.18,0.18)"><g transform="" style="fill: rgb(47, 47, 162);">
<rect width="100" height="100"/>
</g></g><g transform="translate(0,270) scale(0.18,0.18)"><g transform="" style="fill: rgb(47, 47, 162);">
<rect width="100" height="100"/>
</g></g><g transform="translate(72,270) scale(0.18,0.18)"><g transform="" style="fill: rgb(47, 47, 162);">
<rect width="100" height="100"/>
</g></g><g transform="translate(126,270) scale(0.18,0.18)"><g transform="" style="fill: rgb(47, 47, 162);">
<rect width="100" height="100"/>
</g></g><g transform="translate(144,270) scale(0.18,0.18)"><g transform="" style="fill: rgb(47, 47, 162);">
<rect width="100" height="100"/>
</g></g><g transform="translate(162,270) scale(0.18,0.18)"><g transform="" style="fill: rgb(47, 47, 162);">
<rect width="100" height="100"/>
</g></g><g transform="translate(180,270) scale(0.18,0.18)"><g transform="" style="fill: rgb(47, 47, 162);">
<rect width="100" height="100"/>
</g></g><g transform="translate(198,270) scale(0.18,0.18)"><g transform="" style="fill: rgb(47, 47, 162);">
<rect width="100" height="100"/>
</g></g><g transform="translate(252,270) scale(0.18,0.18)"><g transform="" style="fill: rgb(47, 47, 162);">
<rect width="100" height="100"/>
</g></g><g transform="translate(270,270) scale(0.18,0.18)"><g transform="" style="fill: rgb(47, 47, 162);">
<rect width="100" height="100"/>
</g></g><g transform="translate(324,270) scale(0.18,0.18)"><g transform="" style="fill: rgb(47, 47, 162);">
<rect width="100" height="100"/>
</g></g><g transform="translate(360,270) scale(0.18,0.18)"><g transform="" style="fill: rgb(47, 47, 162);">
<rect width="100" height="100"/>
</g></g><g transform="translate(414,270) scale(0.18,0.18)"><g transform="" style="fill: rgb(47, 47, 162);">
<rect width="100" height="100"/>
</g></g><g transform="translate(432,270) scale(0.18,0.18)"><g transform="" style="fill: rgb(47, 47, 162);">
<rect width="100" height="100"/>
</g></g><g transform="translate(486,270) scale(0.18,0.18)"><g transform="" style="fill: rgb(47, 47, 162);">
<rect width="100" height="100"/>
</g></g><g transform="translate(0,288) scale(0.18,0.18)"><g transform="" style="fill: rgb(47, 47, 162);">
<rect width="100" height="100"/>
</g></g><g transform="translate(18,288) scale(0.18,0.18)"><g transform="" style="fill: rgb(47, 47, 162);">
<rect width="100" height="100"/>
</g></g><g transform="translate(36,288) scale(0.18,0.18)"><g transform="" style="fill: rgb(47, 47, 162);">
<rect width="100" height="100"/>
</g></g><g transform="translate(72,288) scale(0.18,0.18)"><g transform="" style="fill: rgb(47, 47, 162);">
<rect width="100" height="100"/>
</g></g><g transform="translate(108,288) scale(0.18,0.18)"><g transform="" style="fill: rgb(47, 47, 162);">
<rect width="100" height="100"/>
</g></g><g transform="translate(180,288) scale(0.18,0.18)"><g transform="" style="fill: rgb(47, 47, 162);">
<rect width="100" height="100"/>
</g></g><g transform="translate(216,288) scale(0.18,0.18)"><g transform="" style="fill: rgb(47, 47, 162);">
<rect width="100" height="100"/>
</g></g><g transform="translate(252,288) scale(0.18,0.18)"><g transform="" style="fill: rgb(47, 47, 162);">
<rect width="100" height="100"/>
</g></g><g transform="translate(324,288) scale(0.18,0.18)"><g transform="" style="fill: rgb(47, 47, 162);">
<rect width="100" height="100"/>
</g></g><g transform="translate(360,288) scale(0.18,0.18)"><g transform="" style="fill: rgb(47, 47, 162);">
<rect width="100" height="100"/>
</g></g><g transform="translate(432,288) scale(0.18,0.18)"><g transform="" style="fill: rgb(47, 47, 162);">
<rect width="100" height="100"/>
</g></g><g transform="translate(450,288) scale(0.18,0.18)"><g transform="" style="fill: rgb(47, 47, 162);">
<rect width="100" height="100"/>
</g></g><g transform="translate(486,288) scale(0.18,0.18)"><g transform="" style="fill: rgb(47, 47, 162);">
<rect width="100" height="100"/>
</g></g><g transform="translate(54,306) scale(0.18,0.18)"><g transform="" style="fill: rgb(47, 47, 162);">
<rect width="100" height="100"/>
</g></g><g transform="translate(72,306) scale(0.18,0.18)"><g transform="" style="fill: rgb(47, 47, 162);">
<rect width="100" height="100"/>
</g></g><g transform="translate(180,306) scale(0.18,0.18)"><g transform="" style="fill: rgb(47, 47, 162);">
<rect width="100" height="100"/>
</g></g><g transform="translate(252,306) scale(0.18,0.18)"><g transform="" style="fill: rgb(47, 47, 162);">
<rect width="100" height="100"/>
</g></g><g transform="translate(270,306) scale(0.18,0.18)"><g transform="" style="fill: rgb(47, 47, 162);">
<rect width="100" height="100"/>
</g></g><g transform="translate(360,306) scale(0.18,0.18)"><g transform="" style="fill: rgb(47, 47, 162);">
<rect width="100" height="100"/>
</g></g><g transform="translate(414,306) scale(0.18,0.18)"><g transform="" style="fill: rgb(47, 47, 162);">
<rect width="100" height="100"/>
</g></g><g transform="translate(450,306) scale(0.18,0.18)"><g transform="" style="fill: rgb(47, 47, 162);">
<rect width="100" height="100"/>
</g></g><g transform="translate(468,306) scale(0.18,0.18)"><g transform="" style="fill: rgb(47, 47, 162);">
<rect width="100" height="100"/>
</g></g><g transform="translate(486,306) scale(0.18,0.18)"><g transform="" style="fill: rgb(47, 47, 162);">
<rect width="100" height="100"/>
</g></g><g transform="translate(0,324) scale(0.18,0.18)"><g transform="" style="fill: rgb(47, 47, 162);">
<rect width="100" height="100"/>
</g></g><g transform="translate(54,324) scale(0.18,0.18)"><g transform="" style="fill: rgb(47, 47, 162);">
<rect width="100" height="100"/>
</g></g><g transform="translate(72,324) scale(0.18,0.18)"><g transform="" style="fill: rgb(47, 47, 162);">
<rect width="100" height="100"/>
</g></g><g transform="translate(108,324) scale(0.18,0.18)"><g transform="" style="fill: rgb(47, 47, 162);">
<rect width="100" height="100"/>
</g></g><g transform="translate(162,324) scale(0.18,0.18)"><g transform="" style="fill: rgb(47, 47, 162);">
<rect width="100" height="100"/>
</g></g><g transform="translate(180,324) scale(0.18,0.18)"><g transform="" style="fill: rgb(47, 47, 162);">
<rect width="100" height="100"/>
</g></g><g transform="translate(198,324) scale(0.18,0.18)"><g transform="" style="fill: rgb(47, 47, 162);">
<rect width="100" height="100"/>
</g></g><g transform="translate(216,324) scale(0.18,0.18)"><g transform="" style="fill: rgb(47, 47, 162);">
<rect width="100" height="100"/>
</g></g><g transform="translate(234,324) scale(0.18,0.18)"><g transform="" style="fill: rgb(47, 47, 162);">
<rect width="100" height="100"/>
</g></g><g transform="translate(252,324) scale(0.18,0.18)"><g transform="" style="fill: rgb(47, 47, 162);">
<rect width="100" height="100"/>
</g></g><g transform="translate(270,324) scale(0.18,0.18)"><g transform="" style="fill: rgb(47, 47, 162);">
<rect width="100" height="100"/>
</g></g><g transform="translate(360,324) scale(0.18,0.18)"><g transform="" style="fill: rgb(47, 47, 162);">
<rect width="100" height="100"/>
</g></g><g transform="translate(396,324) scale(0.18,0.18)"><g transform="" style="fill: rgb(47, 47, 162);">
<rect width="100" height="100"/>
</g></g><g transform="translate(414,324) scale(0.18,0.18)"><g transform="" style="fill: rgb(47, 47, 162);">
<rect width="100" height="100"/>
</g></g><g transform="translate(432,324) scale(0.18,0.18)"><g transform="" style="fill: rgb(47, 47, 162);">
<rect width="100" height="100"/>
</g></g><g transform="translate(468,324) scale(0.18,0.18)"><g transform="" style="fill: rgb(47, 47, 162);">
<rect width="100" height="100"/>
</g></g><g transform="translate(54,342) scale(0.18,0.18)"><g transform="" style="fill: rgb(47, 47, 162);">
<rect width="100" height="100"/>
</g></g><g transform="translate(72,342) scale(0.18,0.18)"><g transform="" style="fill: rgb(47, 47, 162);">
<rect width="100" height="100"/>
</g></g><g transform="translate(144,342) scale(0.18,0.18)"><g transform="" style="fill: rgb(47, 47, 162);">
<rect width="100" height="100"/>
</g></g><g transform="translate(180,342) scale(0.18,0.18)"><g transform="" style="fill: rgb(47, 47, 162);">
<rect width="100" height="100"/>
</g></g><g transform="translate(234,342) scale(0.18,0.18)"><g transform="" style="fill: rgb(47, 47, 162);">
<rect width="100" height="100"/>
</g></g><g transform="translate(252,342) scale(0.18,0.18)"><g transform="" style="fill: rgb(47, 47, 162);">
<rect width="100" height="100"/>
</g></g><g transform="translate(270,342) scale(0.18,0.18)"><g transform="" style="fill: rgb(47, 47, 162);">
<rect width="100" height="100"/>
</g></g><g transform="translate(288,342) scale(0.18,0.18)"><g transform="" style="fill: rgb(47, 47, 162);">
<rect width="100" height="100"/>
</g></g><g transform="translate(306,342) scale(0.18,0.18)"><g transform="" style="fill: rgb(47, 47, 162);">
<rect width="100" height="100"/>
</g></g><g transform="translate(324,342) scale(0.18,0.18)"><g transform="" style="fill: rgb(47, 47, 162);">
<rect width="100" height="100"/>
</g></g><g transform="translate(378,342) scale(0.18,0.18)"><g transform="" style="fill: rgb(47, 47, 162);">
<rect width="100" height="100"/>
</g></g><g transform="translate(468,342) scale(0.18,0.18)"><g transform="" style="fill: rgb(47, 47, 162);">
<rect width="100" height="100"/>
</g></g><g transform="translate(18,360) scale(0.18,0.18)"><g transform="" style="fill: rgb(47, 47, 162);">
<rect width="100" height="100"/>
</g></g><g transform="translate(108,360) scale(0.18,0.18)"><g transform="" style="fill: rgb(47, 47, 162);">
<rect width="100" height="100"/>
</g></g><g transform="translate(126,360) scale(0.18,0.18)"><g transform="" style="fill: rgb(47, 47, 162);">
<rect width="100" height="100"/>
</g></g><g transform="translate(162,360) scale(0.18,0.18)"><g transform="" style="fill: rgb(47, 47, 162);">
<rect width="100" height="100"/>
</g></g><g transform="translate(234,360) scale(0.18,0.18)"><g transform="" style="fill: rgb(47, 47, 162);">
<rect width="100" height="100"/>
</g></g><g transform="translate(252,360) scale(0.18,0.18)"><g transform="" style="fill: rgb(47, 47, 162);">
<rect width="100" height="100"/>
</g></g><g transform="translate(270,360) scale(0.18,0.18)"><g transform="" style="fill: rgb(47, 47, 162);">
<rect width="100" height="100"/>
</g></g><g transform="translate(288,360) scale(0.18,0.18)"><g transform="" style="fill: rgb(47, 47, 162);">
<rect width="100" height="100"/>
</g></g><g transform="translate(306,360) scale(0.18,0.18)"><g transform="" style="fill: rgb(47, 47, 162);">
<rect width="100" height="100"/>
</g></g><g transform="translate(324,360) scale(0.18,0.18)"><g transform="" style="fill: rgb(47, 47, 162);">
<rect width="100" height="100"/>
</g></g><g transform="translate(342,360) scale(0.18,0.18)"><g transform="" style="fill: rgb(47, 47, 162);">
<rect width="100" height="100"/>
</g></g><g transform="translate(360,360) scale(0.18,0.18)"><g transform="" style="fill: rgb(47, 47, 162);">
<rect width="100" height="100"/>
</g></g><g transform="translate(378,360) scale(0.18,0.18)"><g transform="" style="fill: rgb(47, 47, 162);">
<rect width="100" height="100"/>
</g></g><g transform="translate(396,360) scale(0.18,0.18)"><g transform="" style="fill: rgb(47, 47, 162);">
<rect width="100" height="100"/>
</g></g><g transform="translate(414,360) scale(0.18,0.18)"><g transform="" style="fill: rgb(47, 47, 162);">
<rect width="100" height="100"/>
</g></g><g transform="translate(432,360) scale(0.18,0.18)"><g transform="" style="fill: rgb(47, 47, 162);">
<rect width="100" height="100"/>
</g></g><g transform="translate(450,360) scale(0.18,0.18)"><g transform="" style="fill: rgb(47, 47, 162);">
<rect width="100" height="100"/>
</g></g><g transform="translate(468,360) scale(0.18,0.18)"><g transform="" style="fill: rgb(47, 47, 162);">
<rect width="100" height="100"/>
</g></g><g transform="translate(144,378) scale(0.18,0.18)"><g transform="" style="fill: rgb(47, 47, 162);">
<rect width="100" height="100"/>
</g></g><g transform="translate(162,378) scale(0.18,0.18)"><g transform="" style="fill: rgb(47, 47, 162);">
<rect width="100" height="100"/>
</g></g><g transform="translate(198,378) scale(0.18,0.18)"><g transform="" style="fill: rgb(47, 47, 162);">
<rect width="100" height="100"/>
</g></g><g transform="translate(360,378) scale(0.18,0.18)"><g transform="" style="fill: rgb(47, 47, 162);">
<rect width="100" height="100"/>
</g></g><g transform="translate(432,378) scale(0.18,0.18)"><g transform="" style="fill: rgb(47, 47, 162);">
<rect width="100" height="100"/>
</g></g><g transform="translate(450,378) scale(0.18,0.18)"><g transform="" style="fill: rgb(47, 47, 162);">
<rect width="100" height="100"/>
</g></g><g transform="translate(468,378) scale(0.18,0.18)"><g transform="" style="fill: rgb(47, 47, 162);">
<rect width="100" height="100"/>
</g></g><g transform="translate(486,378) scale(0.18,0.18)"><g transform="" style="fill: rgb(47, 47, 162);">
<rect width="100" height="100"/>
</g></g><g transform="translate(504,378) scale(0.18,0.18)"><g transform="" style="fill: rgb(47, 47, 162);">
<rect width="100" height="100"/>
</g></g><g transform="translate(144,396) scale(0.18,0.18)"><g transform="" style="fill: rgb(47, 47, 162);">
<rect width="100" height="100"/>
</g></g><g transform="translate(162,396) scale(0.18,0.18)"><g transform="" style="fill: rgb(47, 47, 162);">
<rect width="100" height="100"/>
</g></g><g transform="translate(180,396) scale(0.18,0.18)"><g transform="" style="fill: rgb(47, 47, 162);">
<rect width="100" height="100"/>
</g></g><g transform="translate(216,396) scale(0.18,0.18)"><g transform="" style="fill: rgb(47, 47, 162);">
<rect width="100" height="100"/>
</g></g><g transform="translate(252,396) scale(0.18,0.18)"><g transform="" style="fill: rgb(47, 47, 162);">
<rect width="100" height="100"/>
</g></g><g transform="translate(342,396) scale(0.18,0.18)"><g transform="" style="fill: rgb(47, 47, 162);">
<rect width="100" height="100"/>
</g></g><g transform="translate(360,396) scale(0.18,0.18)"><g transform="" style="fill: rgb(47, 47, 162);">
<rect width="100" height="100"/>
</g></g><g transform="translate(396,396) scale(0.18,0.18)"><g transform="" style="fill: rgb(47, 47, 162);">
<rect width="100" height="100"/>
</g></g><g transform="translate(432,396) scale(0.18,0.18)"><g transform="" style="fill: rgb(47, 47, 162);">
<rect width="100" height="100"/>
</g></g><g transform="translate(450,396) scale(0.18,0.18)"><g transform="" style="fill: rgb(47, 47, 162);">
<rect width="100" height="100"/>
</g></g><g transform="translate(486,396) scale(0.18,0.18)"><g transform="" style="fill: rgb(47, 47, 162);">
<rect width="100" height="100"/>
</g></g><g transform="translate(144,414) scale(0.18,0.18)"><g transform="" style="fill: rgb(47, 47, 162);">
<rect width="100" height="100"/>
</g></g><g transform="translate(234,414) scale(0.18,0.18)"><g transform="" style="fill: rgb(47, 47, 162);">
<rect width="100" height="100"/>
</g></g><g transform="translate(252,414) scale(0.18,0.18)"><g transform="" style="fill: rgb(47, 47, 162);">
<rect width="100" height="100"/>
</g></g><g transform="translate(360,414) scale(0.18,0.18)"><g transform="" style="fill: rgb(47, 47, 162);">
<rect width="100" height="100"/>
</g></g><g transform="translate(432,414) scale(0.18,0.18)"><g transform="" style="fill: rgb(47, 47, 162);">
<rect width="100" height="100"/>
</g></g><g transform="translate(450,414) scale(0.18,0.18)"><g transform="" style="fill: rgb(47, 47, 162);">
<rect width="100" height="100"/>
</g></g><g transform="translate(504,414) scale(0.18,0.18)"><g transform="" style="fill: rgb(47, 47, 162);">
<rect width="100" height="100"/>
</g></g><g transform="translate(180,432) scale(0.18,0.18)"><g transform="" style="fill: rgb(47, 47, 162);">
<rect width="100" height="100"/>
</g></g><g transform="translate(198,432) scale(0.18,0.18)"><g transform="" style="fill: rgb(47, 47, 162);">
<rect width="100" height="100"/>
</g></g><g transform="translate(306,432) scale(0.18,0.18)"><g transform="" style="fill: rgb(47, 47, 162);">
<rect width="100" height="100"/>
</g></g><g transform="translate(360,432) scale(0.18,0.18)"><g transform="" style="fill: rgb(47, 47, 162);">
<rect width="100" height="100"/>
</g></g><g transform="translate(378,432) scale(0.18,0.18)"><g transform="" style="fill: rgb(47, 47, 162);">
<rect width="100" height="100"/>
</g></g><g transform="translate(396,432) scale(0.18,0.18)"><g transform="" style="fill: rgb(47, 47, 162);">
<rect width="100" height="100"/>
</g></g><g transform="translate(414,432) scale(0.18,0.18)"><g transform="" style="fill: rgb(47, 47, 162);">
<rect width="100" height="100"/>
</g></g><g transform="translate(432,432) scale(0.18,0.18)"><g transform="" style="fill: rgb(47, 47, 162);">
<rect width="100" height="100"/>
</g></g><g transform="translate(468,432) scale(0.18,0.18)"><g transform="" style="fill: rgb(47, 47, 162);">
<rect width="100" height="100"/>
</g></g><g transform="translate(144,450) scale(0.18,0.18)"><g transform="" style="fill: rgb(47, 47, 162);">
<rect width="100" height="100"/>
</g></g><g transform="translate(180,450) scale(0.18,0.18)"><g transform="" style="fill: rgb(47, 47, 162);">
<rect width="100" height="100"/>
</g></g><g transform="translate(198,450) scale(0.18,0.18)"><g transform="" style="fill: rgb(47, 47, 162);">
<rect width="100" height="100"/>
</g></g><g transform="translate(234,450) scale(0.18,0.18)"><g transform="" style="fill: rgb(47, 47, 162);">
<rect width="100" height="100"/>
</g></g><g transform="translate(270,450) scale(0.18,0.18)"><g transform="" style="fill: rgb(47, 47, 162);">
<rect width="100" height="100"/>
</g></g><g transform="translate(288,450) scale(0.18,0.18)"><g transform="" style="fill: rgb(47, 47, 162);">
<rect width="100" height="100"/>
</g></g><g transform="translate(306,450) scale(0.18,0.18)"><g transform="" style="fill: rgb(47, 47, 162);">
<rect width="100" height="100"/>
</g></g><g transform="translate(378,450) scale(0.18,0.18)"><g transform="" style="fill: rgb(47, 47, 162);">
<rect width="100" height="100"/>
</g></g><g transform="translate(432,450) scale(0.18,0.18)"><g transform="" style="fill: rgb(47, 47, 162);">
<rect width="100" height="100"/>
</g></g><g transform="translate(450,450) scale(0.18,0.18)"><g transform="" style="fill: rgb(47, 47, 162);">
<rect width="100" height="100"/>
</g></g><g transform="translate(504,450) scale(0.18,0.18)"><g transform="" style="fill: rgb(47, 47, 162);">
<rect width="100" height="100"/>
</g></g><g transform="translate(144,468) scale(0.18,0.18)"><g transform="" style="fill: rgb(47, 47, 162);">
<rect width="100" height="100"/>
</g></g><g transform="translate(180,468) scale(0.18,0.18)"><g transform="" style="fill: rgb(47, 47, 162);">
<rect width="100" height="100"/>
</g></g><g transform="translate(216,468) scale(0.18,0.18)"><g transform="" style="fill: rgb(47, 47, 162);">
<rect width="100" height="100"/>
</g></g><g transform="translate(252,468) scale(0.18,0.18)"><g transform="" style="fill: rgb(47, 47, 162);">
<rect width="100" height="100"/>
</g></g><g transform="translate(306,468) scale(0.18,0.18)"><g transform="" style="fill: rgb(47, 47, 162);">
<rect width="100" height="100"/>
</g></g><g transform="translate(342,468) scale(0.18,0.18)"><g transform="" style="fill: rgb(47, 47, 162);">
<rect width="100" height="100"/>
</g></g><g transform="translate(414,468) scale(0.18,0.18)"><g transform="" style="fill: rgb(47, 47, 162);">
<rect width="100" height="100"/>
</g></g><g transform="translate(468,468) scale(0.18,0.18)"><g transform="" style="fill: rgb(47, 47, 162);">
<rect width="100" height="100"/>
</g></g><g transform="translate(504,468) scale(0.18,0.18)"><g transform="" style="fill: rgb(47, 47, 162);">
<rect width="100" height="100"/>
</g></g><g transform="translate(162,486) scale(0.18,0.18)"><g transform="" style="fill: rgb(47, 47, 162);">
<rect width="100" height="100"/>
</g></g><g transform="translate(180,486) scale(0.18,0.18)"><g transform="" style="fill: rgb(47, 47, 162);">
<rect width="100" height="100"/>
</g></g><g transform="translate(270,486) scale(0.18,0.18)"><g transform="" style="fill: rgb(47, 47, 162);">
<rect width="100" height="100"/>
</g></g><g transform="translate(288,486) scale(0.18,0.18)"><g transform="" style="fill: rgb(47, 47, 162);">
<rect width="100" height="100"/>
</g></g><g transform="translate(342,486) scale(0.18,0.18)"><g transform="" style="fill: rgb(47, 47, 162);">
<rect width="100" height="100"/>
</g></g><g transform="translate(360,486) scale(0.18,0.18)"><g transform="" style="fill: rgb(47, 47, 162);">
<rect width="100" height="100"/>
</g></g><g transform="translate(450,486) scale(0.18,0.18)"><g transform="" style="fill: rgb(47, 47, 162);">
<rect width="100" height="100"/>
</g></g><g transform="translate(486,486) scale(0.18,0.18)"><g transform="" style="fill: rgb(47, 47, 162);">
<rect width="100" height="100"/>
</g></g><g transform="translate(144,504) scale(0.18,0.18)"><g transform="" style="fill: rgb(47, 47, 162);">
<rect width="100" height="100"/>
</g></g><g transform="translate(198,504) scale(0.18,0.18)"><g transform="" style="fill: rgb(47, 47, 162);">
<rect width="100" height="100"/>
</g></g><g transform="translate(234,504) scale(0.18,0.18)"><g transform="" style="fill: rgb(47, 47, 162);">
<rect width="100" height="100"/>
</g></g><g transform="translate(324,504) scale(0.18,0.18)"><g transform="" style="fill: rgb(47, 47, 162);">
<rect width="100" height="100"/>
</g></g><g transform="translate(342,504) scale(0.18,0.18)"><g transform="" style="fill: rgb(47, 47, 162);">
<rect width="100" height="100"/>
</g></g><g transform="translate(360,504) scale(0.18,0.18)"><g transform="" style="fill: rgb(47, 47, 162);">
<rect width="100" height="100"/>
</g></g><g transform="translate(378,504) scale(0.18,0.18)"><g transform="" style="fill: rgb(47, 47, 162);">
<rect width="100" height="100"/>
</g></g><g transform="translate(396,504) scale(0.18,0.18)"><g transform="" style="fill: rgb(47, 47, 162);">
<rect width="100" height="100"/>
</g></g><g transform="translate(486,504) scale(0.18,0.18)"><g transform="" style="fill: rgb(47, 47, 162);">
<rect width="100" height="100"/>
</g></g><g transform="translate(0,0) scale(1.26, 1.26)"><g transform="" style="fill: rgb(47, 47, 162);">
<g>
	<rect x="15" y="15" style="fill:none;" width="70" height="70"/>
	<path d="M85,0H15H0v15v70v15h15h70h15V85V15V0H85z M85,85H15V15h70V85z"/>
</g>
</g></g><g transform="translate(396,0) scale(1.26, 1.26)"><g transform="" style="fill: rgb(47, 47, 162);">
<g>
	<rect x="15" y="15" style="fill:none;" width="70" height="70"/>
	<path d="M85,0H15H0v15v70v15h15h70h15V85V15V0H85z M85,85H15V15h70V85z"/>
</g>
</g></g><g transform="translate(0,396) scale(1.26, 1.26)"><g transform="" style="fill: rgb(47, 47, 162);">
<g>
	<rect x="15" y="15" style="fill:none;" width="70" height="70"/>
	<path d="M85,0H15H0v15v70v15h15h70h15V85V15V0H85z M85,85H15V15h70V85z"/>
</g>
</g></g><g transform="translate(36,36) scale(0.54, 0.54)"><g transform="" style="fill: rgb(47, 47, 162);">
<rect width="100" height="100"/>
</g></g><g transform="translate(432,36) scale(0.54, 0.54)"><g transform="" style="fill: rgb(47, 47, 162);">
<rect width="100" height="100"/>
</g></g><g transform="translate(36,432) scale(0.54, 0.54)"><g transform="" style="fill: rgb(47, 47, 162);">
<rect width="100" height="100"/>
</g></g></g></svg>